<svg width="996" height="186" viewBox="0 0 996 186" fill="none" xmlns="http://www.w3.org/2000/svg">
<g clip-path="url(#clip0_17_6)">
<path d="M0 12C0 5.37258 5.37258 0 12 0H984C990.627 0 996 5.37258 996 12V174C996 180.627 990.627 186 984 186H12C5.37258 186 0 180.627 0 174V12Z" fill="url(#paint0_linear_17_6)"/>
<path d="M195.703 128H174.158V58.1818H196.658C203.43 58.1818 209.226 59.5795 214.044 62.375C218.862 65.1477 222.555 69.1364 225.124 74.3409C227.692 79.5227 228.976 85.7273 228.976 92.9545C228.976 100.227 227.68 106.489 225.089 111.739C222.499 116.966 218.726 120.989 213.771 123.807C208.817 126.602 202.794 128 195.703 128ZM182.612 120.5H195.158C200.93 120.5 205.714 119.386 209.51 117.159C213.305 114.932 216.135 111.761 217.999 107.648C219.862 103.534 220.794 98.6364 220.794 92.9545C220.794 87.3182 219.874 82.4659 218.033 78.3977C216.192 74.3068 213.442 71.1705 209.783 68.9886C206.124 66.7841 201.567 65.6818 196.112 65.6818H182.612V120.5ZM263.339 129.091C258.612 129.091 254.464 127.966 250.896 125.716C247.351 123.466 244.578 120.318 242.578 116.273C240.601 112.227 239.612 107.5 239.612 102.091C239.612 96.6364 240.601 91.875 242.578 87.8068C244.578 83.7386 247.351 80.5795 250.896 78.3295C254.464 76.0795 258.612 74.9545 263.339 74.9545C268.067 74.9545 272.203 76.0795 275.749 78.3295C279.317 80.5795 282.089 83.7386 284.067 87.8068C286.067 91.875 287.067 96.6364 287.067 102.091C287.067 107.5 286.067 112.227 284.067 116.273C282.089 120.318 279.317 123.466 275.749 125.716C272.203 127.966 268.067 129.091 263.339 129.091ZM263.339 121.864C266.93 121.864 269.885 120.943 272.203 119.102C274.521 117.261 276.237 114.841 277.351 111.841C278.464 108.841 279.021 105.591 279.021 102.091C279.021 98.5909 278.464 95.3295 277.351 92.3068C276.237 89.2841 274.521 86.8409 272.203 84.9773C269.885 83.1136 266.93 82.1818 263.339 82.1818C259.749 82.1818 256.794 83.1136 254.476 84.9773C252.158 86.8409 250.442 89.2841 249.328 92.3068C248.214 95.3295 247.658 98.5909 247.658 102.091C247.658 105.591 248.214 108.841 249.328 111.841C250.442 114.841 252.158 117.261 254.476 119.102C256.794 120.943 259.749 121.864 263.339 121.864ZM309.43 128L293.476 75.6364H301.93L313.249 115.727H313.794L324.976 75.6364H333.567L344.612 115.591H345.158L356.476 75.6364H364.93L348.976 128H341.067L329.612 87.7727H328.794L317.339 128H309.43ZM383.612 96.5V128H375.567V75.6364H383.339V83.8182H384.021C385.249 81.1591 387.112 79.0227 389.612 77.4091C392.112 75.7727 395.339 74.9545 399.294 74.9545C402.839 74.9545 405.942 75.6818 408.601 77.1364C411.26 78.5682 413.328 80.75 414.805 83.6818C416.283 86.5909 417.021 90.2727 417.021 94.7273V128H408.976V95.2727C408.976 91.1591 407.908 87.9545 405.771 85.6591C403.635 83.3409 400.703 82.1818 396.976 82.1818C394.408 82.1818 392.112 82.7386 390.089 83.8523C388.089 84.9659 386.51 86.5909 385.351 88.7273C384.192 90.8636 383.612 93.4545 383.612 96.5ZM439.768 58.1818V128H431.723V58.1818H439.768ZM475.777 129.091C471.05 129.091 466.902 127.966 463.334 125.716C459.788 123.466 457.016 120.318 455.016 116.273C453.038 112.227 452.05 107.5 452.05 102.091C452.05 96.6364 453.038 91.875 455.016 87.8068C457.016 83.7386 459.788 80.5795 463.334 78.3295C466.902 76.0795 471.05 74.9545 475.777 74.9545C480.504 74.9545 484.641 76.0795 488.186 78.3295C491.754 80.5795 494.527 83.7386 496.504 87.8068C498.504 91.875 499.504 96.6364 499.504 102.091C499.504 107.5 498.504 112.227 496.504 116.273C494.527 120.318 491.754 123.466 488.186 125.716C484.641 127.966 480.504 129.091 475.777 129.091ZM475.777 121.864C479.368 121.864 482.322 120.943 484.641 119.102C486.959 117.261 488.675 114.841 489.788 111.841C490.902 108.841 491.459 105.591 491.459 102.091C491.459 98.5909 490.902 95.3295 489.788 92.3068C488.675 89.2841 486.959 86.8409 484.641 84.9773C482.322 83.1136 479.368 82.1818 475.777 82.1818C472.186 82.1818 469.232 83.1136 466.913 84.9773C464.595 86.8409 462.879 89.2841 461.766 92.3068C460.652 95.3295 460.095 98.5909 460.095 102.091C460.095 105.591 460.652 108.841 461.766 111.841C462.879 114.841 464.595 117.261 466.913 119.102C469.232 120.943 472.186 121.864 475.777 121.864ZM527.195 129.227C523.876 129.227 520.865 128.602 518.161 127.352C515.456 126.08 513.308 124.25 511.717 121.864C510.126 119.455 509.331 116.545 509.331 113.136C509.331 110.136 509.922 107.705 511.104 105.841C512.286 103.955 513.865 102.477 515.842 101.409C517.82 100.341 520.001 99.5455 522.388 99.0227C524.797 98.4773 527.217 98.0455 529.649 97.7273C532.831 97.3182 535.411 97.0114 537.388 96.8068C539.388 96.5795 540.842 96.2045 541.751 95.6818C542.683 95.1591 543.149 94.25 543.149 92.9545V92.6818C543.149 89.3182 542.229 86.7045 540.388 84.8409C538.57 82.9773 535.808 82.0455 532.104 82.0455C528.263 82.0455 525.251 82.8864 523.07 84.5682C520.888 86.25 519.354 88.0455 518.467 89.9545L510.831 87.2273C512.195 84.0455 514.013 81.5682 516.286 79.7955C518.581 78 521.081 76.75 523.786 76.0455C526.513 75.3182 529.195 74.9545 531.831 74.9545C533.513 74.9545 535.445 75.1591 537.626 75.5682C539.831 75.9545 541.956 76.7614 544.001 77.9886C546.07 79.2159 547.786 81.0682 549.149 83.5455C550.513 86.0227 551.195 89.3409 551.195 93.5V128H543.149V120.909H542.74C542.195 122.045 541.286 123.261 540.013 124.557C538.74 125.852 537.047 126.955 534.933 127.864C532.82 128.773 530.24 129.227 527.195 129.227ZM528.422 122C531.604 122 534.286 121.375 536.467 120.125C538.672 118.875 540.331 117.261 541.445 115.284C542.581 113.307 543.149 111.227 543.149 109.045V101.682C542.808 102.091 542.058 102.466 540.899 102.807C539.763 103.125 538.445 103.409 536.945 103.659C535.467 103.886 534.024 104.091 532.615 104.273C531.229 104.432 530.104 104.568 529.24 104.682C527.149 104.955 525.195 105.398 523.376 106.011C521.581 106.602 520.126 107.5 519.013 108.705C517.922 109.886 517.376 111.5 517.376 113.545C517.376 116.341 518.411 118.455 520.479 119.886C522.57 121.295 525.217 122 528.422 122ZM585.652 129.091C581.288 129.091 577.436 127.989 574.095 125.784C570.754 123.557 568.141 120.42 566.254 116.375C564.368 112.307 563.425 107.5 563.425 101.955C563.425 96.4545 564.368 91.6818 566.254 87.6364C568.141 83.5909 570.766 80.4659 574.129 78.2614C577.493 76.0568 581.379 74.9545 585.788 74.9545C589.197 74.9545 591.891 75.5227 593.868 76.6591C595.868 77.7727 597.391 79.0455 598.436 80.4773C599.504 81.8864 600.334 83.0455 600.925 83.9545H601.607V58.1818H609.652V128H601.879V119.955H600.925C600.334 120.909 599.493 122.114 598.402 123.568C597.311 125 595.754 126.284 593.732 127.42C591.709 128.534 589.016 129.091 585.652 129.091ZM586.743 121.864C589.97 121.864 592.697 121.023 594.925 119.341C597.152 117.636 598.845 115.284 600.004 112.284C601.163 109.261 601.743 105.773 601.743 101.818C601.743 97.9091 601.175 94.4886 600.038 91.5568C598.902 88.6023 597.22 86.3068 594.993 84.6705C592.766 83.0114 590.016 82.1818 586.743 82.1818C583.334 82.1818 580.493 83.0568 578.22 84.8068C575.97 86.5341 574.277 88.8864 573.141 91.8636C572.027 94.8182 571.47 98.1364 571.47 101.818C571.47 105.545 572.038 108.932 573.175 111.977C574.334 115 576.038 117.409 578.288 119.205C580.561 120.977 583.379 121.864 586.743 121.864ZM653.595 128V58.1818H662.05V120.5H694.504V128H653.595ZM706.504 128V75.6364H714.55V128H706.504ZM710.595 66.9091C709.027 66.9091 707.675 66.375 706.538 65.3068C705.425 64.2386 704.868 62.9545 704.868 61.4545C704.868 59.9545 705.425 58.6705 706.538 57.6023C707.675 56.5341 709.027 56 710.595 56C712.163 56 713.504 56.5341 714.618 57.6023C715.754 58.6705 716.322 59.9545 716.322 61.4545C716.322 62.9545 715.754 64.2386 714.618 65.3068C713.504 66.375 712.163 66.9091 710.595 66.9091ZM737.331 96.5V128H729.286V75.6364H737.058V83.8182H737.74C738.967 81.1591 740.831 79.0227 743.331 77.4091C745.831 75.7727 749.058 74.9545 753.013 74.9545C756.558 74.9545 759.661 75.6818 762.32 77.1364C764.979 78.5682 767.047 80.75 768.524 83.6818C770.001 86.5909 770.74 90.2727 770.74 94.7273V128H762.695V95.2727C762.695 91.1591 761.626 87.9545 759.49 85.6591C757.354 83.3409 754.422 82.1818 750.695 82.1818C748.126 82.1818 745.831 82.7386 743.808 83.8523C741.808 84.9659 740.229 86.5909 739.07 88.7273C737.911 90.8636 737.331 93.4545 737.331 96.5ZM792.942 108.909L792.805 98.9545H794.442L817.351 75.6364H827.305L802.896 100.318H802.214L792.942 108.909ZM785.442 128V58.1818H793.487V128H785.442ZM818.714 128L798.26 102.091L803.987 96.5L828.942 128H818.714Z" fill="white"/>
</g>
<defs>
<linearGradient id="paint0_linear_17_6" x1="498" y1="0" x2="498" y2="186" gradientUnits="userSpaceOnUse">
<stop stop-color="#B2F5C1"/>
<stop offset="1" stop-color="#688F70"/>
</linearGradient>
<clipPath id="clip0_17_6">
<path d="M0 12C0 5.37258 5.37258 0 12 0H984C990.627 0 996 5.37258 996 12V174C996 180.627 990.627 186 984 186H12C5.37258 186 0 180.627 0 174V12Z" fill="white"/>
</clipPath>
</defs>
</svg>
